<mxfile host="app.diagrams.net" modified="2024-01-24T02:14:09.977Z" agent="Mozilla/5.0 (X11; Linux x86_64) AppleWebKit/537.36 (KHTML, like Gecko) Chrome/120.0.0.0 Safari/537.36" etag="6NeqmkK_VftiMZuZ31B0" version="22.1.18" type="dropbox">
  <diagram name="Page-1" id="oSmeYbYXFu5HqIR2mh7M">
    <mxGraphModel dx="977" dy="507" grid="1" gridSize="10" guides="1" tooltips="1" connect="1" arrows="1" fold="1" page="1" pageScale="1" pageWidth="850" pageHeight="1100" math="0" shadow="0">
      <root>
        <mxCell id="0" />
        <mxCell id="1" parent="0" />
        <mxCell id="DE4CORQEvnYJsB6Sdayj-1" value="Get User Id" style="html=1;dashed=0;whiteSpace=wrap;align=left;verticalAlign=top;" vertex="1" parent="1">
          <mxGeometry x="80" y="40" width="650" height="350" as="geometry" />
        </mxCell>
        <mxCell id="DE4CORQEvnYJsB6Sdayj-10" value="Signed HTML Cookie" style="html=1;whiteSpace=wrap;" vertex="1" parent="1">
          <mxGeometry x="380" y="65" width="90" height="35" as="geometry" />
        </mxCell>
        <mxCell id="DE4CORQEvnYJsB6Sdayj-12" value="" style="edgeStyle=elbowEdgeStyle;html=1;elbow=horizontal;startArrow=open;rounded=0;endArrow=none;verticalAlign=bottom;startSize=12;" edge="1" parent="1" source="DE4CORQEvnYJsB6Sdayj-13" target="DE4CORQEvnYJsB6Sdayj-10">
          <mxGeometry relative="1" as="geometry">
            <mxPoint x="320" y="134.5" as="targetPoint" />
            <mxPoint x="350" y="135" as="sourcePoint" />
          </mxGeometry>
        </mxCell>
        <mxCell id="DE4CORQEvnYJsB6Sdayj-13" value="Extract and decode user UID from cookie." style="shape=rect;html=1;rounded=1;whiteSpace=wrap;align=center;" vertex="1" parent="1">
          <mxGeometry x="540" y="62.5" width="140" height="40" as="geometry" />
        </mxCell>
        <mxCell id="DE4CORQEvnYJsB6Sdayj-14" value="" style="shape=rhombus;html=1;verticalLabelPosition=bottom;verticalAlignment=top;" vertex="1" parent="1">
          <mxGeometry x="200" y="115" width="40" height="40" as="geometry" />
        </mxCell>
        <mxCell id="DE4CORQEvnYJsB6Sdayj-15" value="" style="edgeStyle=elbowEdgeStyle;html=1;elbow=horizontal;align=right;verticalAlign=bottom;endArrow=none;rounded=0;labelBackgroundColor=none;startArrow=open;startSize=12;" edge="1" source="DE4CORQEvnYJsB6Sdayj-14" parent="1" target="DE4CORQEvnYJsB6Sdayj-43">
          <mxGeometry relative="1" as="geometry">
            <mxPoint x="130" y="135" as="targetPoint" />
          </mxGeometry>
        </mxCell>
        <mxCell id="DE4CORQEvnYJsB6Sdayj-16" value="[has user id cookie]" style="edgeStyle=elbowEdgeStyle;html=1;elbow=vertical;verticalAlign=bottom;endArrow=open;rounded=0;labelBackgroundColor=none;endSize=12;" edge="1" source="DE4CORQEvnYJsB6Sdayj-14" parent="1" target="DE4CORQEvnYJsB6Sdayj-10">
          <mxGeometry relative="1" as="geometry">
            <mxPoint x="360" y="275" as="targetPoint" />
            <Array as="points">
              <mxPoint x="250" y="83" />
            </Array>
          </mxGeometry>
        </mxCell>
        <mxCell id="DE4CORQEvnYJsB6Sdayj-17" value="[else]" style="edgeStyle=elbowEdgeStyle;html=1;elbow=vertical;verticalAlign=bottom;endArrow=open;rounded=0;labelBackgroundColor=none;endSize=12;" edge="1" source="DE4CORQEvnYJsB6Sdayj-14" parent="1" target="DE4CORQEvnYJsB6Sdayj-18">
          <mxGeometry relative="1" as="geometry">
            <mxPoint x="160" y="275" as="targetPoint" />
            <Array as="points">
              <mxPoint x="280" y="195" />
            </Array>
          </mxGeometry>
        </mxCell>
        <mxCell id="DE4CORQEvnYJsB6Sdayj-18" value="Create new user UID." style="shape=rect;html=1;rounded=1;whiteSpace=wrap;align=center;" vertex="1" parent="1">
          <mxGeometry x="365" y="175" width="120" height="40" as="geometry" />
        </mxCell>
        <mxCell id="DE4CORQEvnYJsB6Sdayj-20" value="" style="edgeStyle=elbowEdgeStyle;html=1;elbow=horizontal;startArrow=open;rounded=0;endArrow=none;verticalAlign=bottom;startSize=12;" edge="1" parent="1" source="DE4CORQEvnYJsB6Sdayj-34" target="DE4CORQEvnYJsB6Sdayj-18">
          <mxGeometry relative="1" as="geometry">
            <mxPoint x="480" y="93" as="targetPoint" />
            <mxPoint x="550" y="195" as="sourcePoint" />
          </mxGeometry>
        </mxCell>
        <mxCell id="DE4CORQEvnYJsB6Sdayj-23" value="" style="edgeStyle=elbowEdgeStyle;html=1;elbow=horizontal;startArrow=open;rounded=0;endArrow=none;verticalAlign=bottom;startSize=12;" edge="1" parent="1" source="DE4CORQEvnYJsB6Sdayj-34" target="DE4CORQEvnYJsB6Sdayj-13">
          <mxGeometry relative="1" as="geometry">
            <mxPoint x="495" y="205" as="targetPoint" />
            <mxPoint x="575" y="205" as="sourcePoint" />
          </mxGeometry>
        </mxCell>
        <mxCell id="DE4CORQEvnYJsB6Sdayj-24" value="Attach the user UID to the response object as a signed cookie." style="shape=rect;html=1;rounded=1;whiteSpace=wrap;align=center;" vertex="1" parent="1">
          <mxGeometry x="520" y="250" width="160" height="60" as="geometry" />
        </mxCell>
        <mxCell id="DE4CORQEvnYJsB6Sdayj-34" value="" style="shape=rhombus;html=1;verticalLabelPosition=bottom;verticalAlignment=top;" vertex="1" parent="1">
          <mxGeometry x="590" y="175" width="40" height="40" as="geometry" />
        </mxCell>
        <mxCell id="DE4CORQEvnYJsB6Sdayj-40" value="" style="edgeStyle=elbowEdgeStyle;html=1;elbow=horizontal;startArrow=open;rounded=0;endArrow=none;verticalAlign=bottom;startSize=12;" edge="1" parent="1" source="DE4CORQEvnYJsB6Sdayj-44" target="DE4CORQEvnYJsB6Sdayj-24">
          <mxGeometry relative="1" as="geometry">
            <mxPoint x="480" y="93" as="targetPoint" />
            <mxPoint x="440" y="400" as="sourcePoint" />
          </mxGeometry>
        </mxCell>
        <mxCell id="DE4CORQEvnYJsB6Sdayj-43" value="HTML Request" style="html=1;whiteSpace=wrap;" vertex="1" parent="1">
          <mxGeometry x="30" y="117.5" width="90" height="35" as="geometry" />
        </mxCell>
        <mxCell id="DE4CORQEvnYJsB6Sdayj-44" value="" style="ellipse;html=1;shape=endState;fillColor=strokeColor;direction=south;" vertex="1" parent="1">
          <mxGeometry x="595" y="340" width="30" height="30" as="geometry" />
        </mxCell>
        <mxCell id="DE4CORQEvnYJsB6Sdayj-45" value="" style="edgeStyle=elbowEdgeStyle;html=1;elbow=horizontal;startArrow=open;rounded=0;endArrow=none;verticalAlign=bottom;startSize=12;" edge="1" parent="1" source="DE4CORQEvnYJsB6Sdayj-24" target="DE4CORQEvnYJsB6Sdayj-34">
          <mxGeometry relative="1" as="geometry">
            <mxPoint x="620" y="113" as="targetPoint" />
            <mxPoint x="620" y="185" as="sourcePoint" />
          </mxGeometry>
        </mxCell>
      </root>
    </mxGraphModel>
  </diagram>
</mxfile>
